<svg width="80" height="80" viewBox="0 0 80 80" fill="none" xmlns="http://www.w3.org/2000/svg">
<path d="M77.5516 54.6545L76.2656 53.9498V47.7514C76.2656 46.8889 75.5672 46.1889 74.7031 46.1889H74.3141L74.0031 42.4092C73.8344 40.3701 72.2312 38.7873 70.1906 38.6467L57.0391 37.7342L53.2 25.2889C52.6656 23.5545 51.0859 22.3904 49.2719 22.3904H39.0734V17.9436C39.0734 17.0811 38.3734 16.3811 37.5109 16.3811H35.1719V15.342C35.1719 11.8857 32.3594 9.07324 28.9031 9.07324C28.0391 9.07324 27.3406 9.77168 27.3406 10.6357C27.3406 11.4982 28.0391 12.1982 28.9031 12.1982C30.6359 12.1982 32.0469 13.6076 32.0469 15.342V16.3811H29.7078C28.8453 16.3811 28.1453 17.0811 28.1453 17.9436V27.6764C28.1453 28.5389 28.8453 29.2389 29.7078 29.2389C30.5703 29.2389 31.2703 28.5389 31.2703 27.6764V19.5061H35.9484V49.5123H31.2703V41.4248C31.2703 40.5623 30.5703 39.8623 29.7078 39.8623C28.8453 39.8623 28.1453 40.5623 28.1453 41.4248V49.5123H14.2734V46.0748C14.2734 45.3982 13.8375 44.7982 13.1938 44.5904L2.04531 40.9654C1.57031 40.8092 1.04844 40.892 0.64375 41.1857C0.239062 41.4811 0 41.9498 0 42.4514V64.3279C0 65.1904 0.7 65.8904 1.5625 65.8904H9.94687C10.8781 68.8076 13.6141 70.9264 16.8344 70.9264C20.0562 70.9264 22.7906 68.8076 23.7219 65.8904H58.5656C59.5047 68.8607 62.3453 70.9264 65.4563 70.9264C67.925 70.9264 70.1062 69.6811 71.4109 67.7873C71.9297 67.0357 72.3078 66.1811 72.5109 65.2607H75.2844C77.8844 65.2607 80 63.1451 80 60.5451V58.7889C80 57.067 79.0625 55.4826 77.5516 54.6545ZM3.125 44.6014L11.1484 47.2107V49.5123H3.125V44.6014ZM9.66719 62.7654H3.125V59.5951H10.8875C10.2359 60.5342 9.81406 61.6326 9.66719 62.7654ZM20.9141 64.142C20.6906 66.1967 18.9469 67.8014 16.8344 67.8014C14.6016 67.8014 12.7313 65.9311 12.7313 63.6982C12.7313 61.4373 14.5703 59.5982 16.8297 59.5951C19.2344 59.6076 21.1781 61.7389 20.9141 64.142ZM24.0031 62.7654C23.8578 61.6342 23.4328 60.5342 22.7828 59.5951H30.0047V60.3045C30.0047 61.1873 30.2109 62.0232 30.5766 62.7654H24.0031ZM30.0047 55.2545C30.0016 55.6607 30.0047 56.0654 30.0047 56.4701H3.125V52.6373H30.6141C30.2062 53.4529 30.0156 54.3467 30.0047 55.2545ZM72.875 49.3154C72.8781 49.3154 72.8797 49.3139 72.8828 49.3139H73.1406V52.5982H71.1453C70.2453 52.5904 69.5172 51.8576 69.5172 50.9561C69.5172 50.5186 69.6875 50.1061 69.9969 49.7967C70.3078 49.4857 70.7203 49.3154 71.1578 49.3154H72.875ZM45.5281 25.5154H49.2719C49.7078 25.5154 50.0859 25.7951 50.2141 26.2107L53.7453 37.6576H45.5281V25.5154ZM39.0734 25.5154H42.4031V49.5123H39.0734V25.5154ZM48.1344 60.1717C48.1344 61.6014 47.0312 62.7654 45.675 62.7654H35.5906C34.2344 62.7654 33.1312 61.6014 33.1312 60.1717V55.2311C33.1312 53.8014 34.2344 52.6373 35.5906 52.6373H45.675C47.0312 52.6373 48.1344 53.8014 48.1344 55.2311V60.1717ZM59.4875 59.6248C59.4203 59.7232 59.3563 59.8232 59.2938 59.9232C58.7641 60.7857 58.4172 61.7623 58.2875 62.7654H50.6891C51.0547 62.0232 51.2594 61.1873 51.2594 60.3045V59.5951H59.5078C59.5 59.6045 59.4953 59.6154 59.4875 59.6248ZM65.0312 67.7795C62.9703 67.567 61.3531 65.7701 61.3531 63.6982C61.3531 61.4654 63.2234 59.5951 65.4563 59.5951C67.6875 59.5951 69.5578 61.4654 69.5578 63.6982C69.5578 66.0982 67.4156 68.0248 65.0312 67.7795ZM76.875 60.5451C76.875 61.4217 76.1609 62.1357 75.2844 62.1357H72.5125C72.3516 61.4061 72.0734 60.7045 71.6969 60.0592C70.4125 57.8592 67.9938 56.4639 65.4437 56.4701H51.2594V55.2311C51.2594 53.6545 50.6328 52.2248 49.6219 51.1889C48.6109 50.1529 47.2156 49.5123 45.675 49.5123H45.5281V40.7826H55.8078L69.975 41.7639C70.4641 41.7982 70.8484 42.1764 70.8891 42.6654L71.1781 46.1889C70.6094 46.1889 70.0547 46.2576 69.5141 46.4451C68.5359 46.7857 67.6859 47.4576 67.1266 48.3295C66.5891 49.1654 66.3906 50.0951 66.3906 51.0779C66.3906 51.6529 66.4984 52.2279 66.7078 52.7639C67.425 54.5998 69.2125 55.7232 71.1578 55.7232H73.0031L76.0484 57.3936C76.5578 57.6732 76.875 58.2076 76.875 58.7889V60.5451Z" fill="white"/>
<path d="M36.2153 55.9229V59.3586C36.2153 60.2216 36.915 60.9211 37.7778 60.9211C38.6406 60.9211 39.3403 60.2216 39.3403 59.3586V55.9229C39.3403 55.0599 38.6406 54.3604 37.7778 54.3604C36.915 54.3604 36.2153 55.0599 36.2153 55.9229Z" fill="white"/>
<path d="M43.4976 60.9211C44.3604 60.9211 45.0601 60.2216 45.0601 59.3586V55.9229C45.0601 55.0599 44.3604 54.3604 43.4976 54.3604C42.6347 54.3604 41.9351 55.0599 41.9351 55.9229V59.3586C41.9351 60.2214 42.6346 60.9211 43.4976 60.9211Z" fill="white"/>
<path d="M28.8406 35.809C30.0195 36.5957 31.5916 35.4537 31.2133 34.0927C31.035 33.4516 30.4509 32.9823 29.7853 32.9491C29.1187 32.916 28.4911 33.326 28.2517 33.9477C27.9917 34.6232 28.2398 35.4051 28.8406 35.809Z" fill="white"/>
<path d="M53.4908 44.1646H51.3821C50.5193 44.1646 49.8196 44.8641 49.8196 45.7271C49.8196 46.59 50.5193 47.2896 51.3821 47.2896H53.4908C54.3536 47.2896 55.0533 46.59 55.0533 45.7271C55.0533 44.8641 54.3536 44.1646 53.4908 44.1646Z" fill="white"/>
</svg>
