<svg width="36" height="36" viewBox="0 0 36 36" fill="none" xmlns="http://www.w3.org/2000/svg">
<path d="M35.8091 26.2926C35.7655 26.1985 35.7248 26.1205 35.6871 26.0579C35.0625 24.9313 33.8689 23.5484 32.107 21.9089L32.0698 21.8713L32.0512 21.8529L32.0323 21.834H32.0134C31.2138 21.0706 30.7074 20.5572 30.4954 20.2944C30.1074 19.7938 30.0205 19.287 30.2325 18.7736C30.3823 18.3856 30.9451 17.5664 31.9195 16.3147C32.432 15.6513 32.8379 15.1196 33.1377 14.719C35.2996 11.8404 36.2369 10.0009 35.9494 9.19987L35.8377 9.01267C35.7627 8.89997 35.569 8.79687 35.257 8.70285C34.9442 8.60902 34.5444 8.5935 34.057 8.65603L28.659 8.69338C28.5715 8.66235 28.4466 8.66524 28.284 8.70285C28.1215 8.74046 28.0402 8.75933 28.0402 8.75933L27.9463 8.80634L27.8717 8.86282C27.8092 8.90017 27.7404 8.96586 27.6654 9.05975C27.5908 9.15332 27.5283 9.26312 27.4784 9.38825C26.8907 10.9026 26.2225 12.3105 25.4726 13.612C25.0102 14.3881 24.5856 15.0607 24.1978 15.6302C23.8105 16.1995 23.4856 16.6189 23.2234 16.8877C22.9608 17.1569 22.7238 17.3725 22.511 17.5353C22.2985 17.6983 22.1363 17.7671 22.0239 17.7419C21.9113 17.7168 21.8053 17.6918 21.7049 17.6668C21.5301 17.5541 21.3895 17.4008 21.2835 17.2068C21.177 17.0129 21.1053 16.7687 21.0678 16.4746C21.0305 16.1803 21.0085 15.9272 21.0022 15.7143C20.9963 15.5018 20.999 15.2011 21.0117 14.8131C21.0247 14.425 21.0305 14.1624 21.0305 14.0247C21.0305 13.549 21.0398 13.0328 21.0583 12.4759C21.0773 11.919 21.0926 11.4777 21.1054 11.1526C21.1181 10.8272 21.124 10.483 21.124 10.12C21.124 9.75705 21.1019 9.47241 21.0583 9.26582C21.0153 9.05949 20.9492 8.85921 20.8621 8.66504C20.7744 8.47107 20.6461 8.32103 20.4778 8.21451C20.3091 8.10812 20.0995 8.02369 19.8499 7.96097C19.1876 7.81085 18.3442 7.72965 17.3193 7.71703C14.9952 7.69204 13.5019 7.84235 12.8396 8.16776C12.5772 8.30525 12.3397 8.4931 12.1274 8.73073C11.9024 9.00616 11.871 9.15647 12.0335 9.1812C12.7833 9.2937 13.3142 9.56282 13.6266 9.9883L13.7392 10.2138C13.8268 10.3764 13.9142 10.6644 14.0017 11.0774C14.0891 11.4903 14.1455 11.9471 14.1703 12.4474C14.2327 13.3612 14.2327 14.1434 14.1703 14.7941C14.1077 15.445 14.0487 15.9518 13.9923 16.3147C13.9359 16.6777 13.8516 16.9718 13.7392 17.197C13.6266 17.4222 13.5517 17.5599 13.5141 17.6099C13.4766 17.6599 13.4454 17.6914 13.4206 17.7037C13.2582 17.7661 13.0892 17.7978 12.9144 17.7978C12.7393 17.7978 12.527 17.7101 12.2771 17.5348C12.0273 17.3595 11.7681 17.1187 11.4994 16.8121C11.2307 16.5053 10.9276 16.0767 10.5901 15.5261C10.2529 14.9755 9.90297 14.3247 9.54058 13.5738L9.24075 13.0293C9.05332 12.679 8.79728 12.1688 8.47238 11.4994C8.14728 10.8297 7.85993 10.1819 7.61013 9.55618C7.51027 9.29337 7.36026 9.09329 7.16036 8.9556L7.06654 8.89912C7.00418 8.84915 6.90406 8.79609 6.76672 8.73954C6.62918 8.68306 6.48567 8.64255 6.33559 8.61763L1.19983 8.65498C0.675017 8.65498 0.31893 8.77406 0.131432 9.01188L0.0563937 9.12439C0.0189073 9.18705 0 9.28712 0 9.42487C0 9.56256 0.0374864 9.73154 0.112525 9.93163C0.862252 11.6964 1.67756 13.3984 2.55846 15.0379C3.43936 16.6773 4.20484 17.998 4.85445 18.9986C5.50419 19.9999 6.16648 20.945 6.8413 21.8333C7.51612 22.7219 7.9628 23.2914 8.18135 23.5416C8.40017 23.7923 8.57204 23.9796 8.69697 24.1048L9.16565 24.5552C9.46554 24.8557 9.90592 25.2155 10.487 25.6346C11.0682 26.0541 11.7116 26.467 12.4176 26.8741C13.1238 27.2805 13.9453 27.6121 14.8826 27.8686C15.8197 28.1254 16.7319 28.2284 17.6191 28.1787H19.7747C20.2119 28.1409 20.5431 28.0032 20.7682 27.7656L20.8428 27.6715C20.8929 27.5968 20.9398 27.4808 20.9832 27.3246C21.027 27.1682 21.0488 26.9958 21.0488 26.8084C21.036 26.2703 21.0769 25.7854 21.1704 25.3537C21.2638 24.9221 21.3703 24.5967 21.4894 24.3775C21.6084 24.1586 21.7428 23.9738 21.8922 23.824C22.0421 23.6739 22.1488 23.583 22.2114 23.5517C22.2737 23.5202 22.3234 23.4988 22.3609 23.486C22.6607 23.3859 23.0137 23.4828 23.4202 23.7772C23.8264 24.0713 24.2073 24.4345 24.5637 24.8661C24.9198 25.298 25.3477 25.7827 25.8475 26.3208C26.3475 26.859 26.7848 27.2591 27.1595 27.5223L27.5342 27.7476C27.7845 27.8979 28.1094 28.0356 28.5093 28.1607C28.9086 28.2858 29.2583 28.3171 29.5587 28.2545L34.3569 28.1796C34.8315 28.1796 35.2008 28.1009 35.4627 27.9447C35.7252 27.7883 35.8811 27.6159 35.9314 27.4285C35.9815 27.2408 35.9842 27.0279 35.9409 26.7899C35.8965 26.5525 35.8527 26.3864 35.8091 26.2926Z" fill="white"/>
</svg>
