<svg width="36" height="36" viewBox="0 0 36 36" fill="none" xmlns="http://www.w3.org/2000/svg">
<path d="M31.9992 17.6644C31.9992 15.9009 31.6651 14.2188 31.0826 12.6587C30.9285 17.794 25.7089 21.7699 22.6445 24.401H30.3149C31.3871 22.392 31.9992 20.1001 31.9992 17.6644ZM26.4541 6.35696C24.0255 4.46614 20.9805 3.3291 17.664 3.3291C9.74656 3.3291 3.32812 9.74754 3.32812 17.6644C3.32812 25.5811 9.74656 31.9994 17.664 31.9994C21.2895 31.9994 24.5907 30.6429 27.1152 28.423H16.7365L16.7049 25.3752C22.9584 19.9389 26.7919 16.2623 26.7919 12.7112C26.7919 11.3914 26.2892 9.72593 24.0269 9.72593C22.2355 9.72593 20.5074 10.7636 20.8214 15.0996H17.1766C16.2651 10.0723 18.999 6.08104 24.2149 6.08104C25.0236 6.08104 25.7716 6.17758 26.4541 6.35696Z" fill="white"/>
</svg>
