<svg width="80" height="80" viewBox="0 0 80 80" fill="none" xmlns="http://www.w3.org/2000/svg">
<path d="M0.01651 10.229H46.646V21.6222H57.032C61.1104 21.6222 64.5119 25.0236 64.5119 29.1021V35.0629C73.1971 35.9215 80 43.4013 80 52.2517V61.9442H68.9701C68.227 66.3363 64.3302 69.7708 59.7399 69.7708C55.1496 69.7708 51.2528 66.3363 50.5098 61.9442H39.8596C39.1166 66.3363 35.2198 69.7708 30.6295 69.7708C27.4757 69.7708 24.6522 68.2022 22.9515 65.7749C21.2508 68.1857 18.4438 69.7708 15.323 69.7708C10.5676 69.7708 6.78638 66.4519 6.07636 61.9442H0V10.229H0.01651ZM61.1104 29.1021C61.1104 26.8895 59.2446 25.0236 57.032 25.0236H55.8431V35.0629H61.1104V29.1021ZM59.7399 66.3694C62.9763 66.3694 65.7007 63.6449 65.7007 60.4086C65.7007 57.1722 62.9763 54.4478 59.7399 54.4478C56.5036 54.4478 53.7792 57.0071 53.7792 60.4086C53.7957 63.6449 56.5201 66.3694 59.7399 66.3694ZM46.646 58.5427H50.5759C51.4675 54.3157 55.2817 51.0629 59.7399 51.0629C64.1981 51.0629 68.0124 54.3157 68.904 58.5427H76.5986V52.2517C76.5986 44.5902 70.4727 38.4643 62.8111 38.4643H52.4252V25.0236H46.646V58.5427ZM30.646 66.3694C33.8824 66.3694 36.6068 63.6449 36.6068 60.4086C36.6068 57.0071 34.0475 54.4478 30.646 54.4478C27.4097 54.4478 24.6852 57.0071 24.6852 60.4086C24.6852 63.6449 27.4097 66.3694 30.646 66.3694ZM15.3395 66.3694C18.5759 66.3694 21.3003 63.6449 21.3003 60.4086C21.3003 57.0071 18.5759 54.4478 15.3395 54.4478C11.9381 54.4478 9.37874 57.0071 9.37874 60.4086C9.37874 63.6449 12.1032 66.3694 15.3395 66.3694ZM6.15893 58.5427C7.03405 54.2001 10.8483 51.0629 15.3395 51.0629C18.4603 51.0629 21.2673 52.648 22.968 55.0587C24.6687 52.615 27.4923 51.0629 30.646 51.0629C35.1042 51.0629 38.9185 54.3157 39.8101 58.5427H43.2446V21.6222V13.6304H3.41796V58.5427H6.15893Z" fill="white"/>
<path d="M32.5284 21.457H35.9298V43.4013H32.5284V21.457Z" fill="white"/>
<path d="M21.6305 21.457H25.032V43.4013H21.6305V21.457Z" fill="white"/>
<path d="M10.5675 21.457H13.969V43.4013H10.5675V21.457Z" fill="white"/>
</svg>
