<svg width="36" height="36" viewBox="0 0 36 36" fill="none" xmlns="http://www.w3.org/2000/svg">
<path d="M31.7411 2H14.2599C13.014 2 12.0005 3.01357 12.0005 4.25939V9.56231C12.4807 9.56231 21.9053 9.56231 22.2816 9.56231C24.6647 9.56231 26.6035 11.5011 26.6035 13.8843C26.6035 14.3304 26.6035 23.8867 26.6035 24H31.7411C32.9869 24 34.0005 22.9864 34.0005 21.7405V4.25939C34.0004 3.01357 32.9869 2 31.7411 2Z" fill="white"/>
<path d="M21.741 12H4.25994C3.01413 12 2.00049 13.0136 2.00049 14.2595V31.7405C2.00056 32.9864 3.01406 34 4.25994 34H21.741C22.9869 34 24.0005 32.9864 24.0005 31.7406V14.2595C24.0006 13.0136 22.9868 12 21.741 12Z" fill="white"/>
</svg>
