<?xml version="1.0" encoding="utf-8"?><svg xmlns="http://www.w3.org/2000/svg" xmlns:xlink="http://www.w3.org/1999/xlink"><symbol viewBox="0 0 36 36" id="icon-2gis" xmlns="http://www.w3.org/2000/svg"><path d="M32 17.664c0-1.763-.335-3.445-.917-5.005-.154 5.135-5.374 9.11-8.438 11.742h7.67a14.264 14.264 0 0 0 1.684-6.737ZM26.453 6.357a14.257 14.257 0 0 0-8.79-3.028c-7.917 0-14.336 6.419-14.336 14.335C3.328 25.581 9.747 32 17.664 32c3.625 0 6.927-1.356 9.451-3.576H16.737l-.032-3.048c6.253-5.436 10.087-9.113 10.087-12.664 0-1.32-.503-2.985-2.765-2.985-1.792 0-3.52 1.038-3.206 5.374h-3.644c-.912-5.028 1.822-9.019 7.038-9.019.809 0 1.557.097 2.24.276Z"/></symbol><symbol viewBox="0 0 32 32" id="icon-chevron-left" xmlns="http://www.w3.org/2000/svg"><path d="M22.25 28.5 9.75 16l12.5-12.5" stroke-width="2" stroke-linejoin="round"/></symbol><symbol viewBox="0 0 32 32" id="icon-chevron-right" xmlns="http://www.w3.org/2000/svg"><path d="M9.75 28.5 22.25 16 9.75 3.5" stroke-width="2" stroke-linejoin="round"/></symbol><symbol viewBox="0 0 36 36" id="icon-copy" xmlns="http://www.w3.org/2000/svg"><path d="M31.741 2H14.26A2.262 2.262 0 0 0 12 4.26v5.302h10.282a4.327 4.327 0 0 1 4.322 4.322V24h5.137a2.262 2.262 0 0 0 2.26-2.26V4.26A2.262 2.262 0 0 0 31.74 2Z"/><path d="M21.741 12H4.26A2.262 2.262 0 0 0 2 14.26v17.48A2.262 2.262 0 0 0 4.26 34H21.74a2.262 2.262 0 0 0 2.26-2.26V14.26A2.262 2.262 0 0 0 21.74 12Z"/></symbol><symbol viewBox="0 0 80 80" id="icon-delivery" xmlns="http://www.w3.org/2000/svg"><g clip-path="url(#ea)" stroke-width="2.927" stroke-linecap="round" stroke-linejoin="round"><path d="M76.585 56.585 41.951 70.244 15.121 2.439 2.44 8.78m25.366 6.83 31.22-12.683L77.56 48.78 46.34 61.463 27.805 15.61ZM39.024 17.073l12.683-5.366M37.073 38.05l30.732-12.683M48.293 40l12.682-5.366M30.732 64.878a6.341 6.341 0 1 1 0 12.683 6.341 6.341 0 0 1 0-12.683Z"/></g><defs><clipPath id="ea"><path d="M0 0h80v80H0z"/></clipPath></defs></symbol><symbol viewBox="0 0 36 36" id="icon-mail" xmlns="http://www.w3.org/2000/svg"><path d="M6 6h24c1.65 0 3 1.35 3 3v18c0 1.65-1.35 3-3 3H6c-1.65 0-3-1.35-3-3V9c0-1.65 1.35-3 3-3Z" stroke-linecap="round" stroke-linejoin="round"/><path d="M33 9 18 19.5 3 9" stroke-linecap="round" stroke-linejoin="round"/></symbol><symbol viewBox="0 0 36 36" id="icon-phone" xmlns="http://www.w3.org/2000/svg"><path d="M22.575 7.5a7.5 7.5 0 0 1 5.925 5.925M22.575 1.5A13.5 13.5 0 0 1 34.5 13.41M33 25.38v4.5a3 3 0 0 1-3.27 3 29.685 29.685 0 0 1-12.945-4.605 29.25 29.25 0 0 1-9-9A29.685 29.685 0 0 1 3.18 6.27 3 3 0 0 1 6.165 3h4.5a3 3 0 0 1 3 2.58c.19 1.44.542 2.854 1.05 4.215a3 3 0 0 1-.675 3.165l-1.905 1.905a24 24 0 0 0 9 9l1.905-1.905a3.001 3.001 0 0 1 3.165-.675c1.36.508 2.775.86 4.215 1.05A3 3 0 0 1 33 25.38Z" stroke-linecap="round" stroke-linejoin="round"/></symbol><symbol viewBox="0 0 36 36" id="icon-tg" xmlns="http://www.w3.org/2000/svg"><path d="M31.46 5.265 5.235 15.228c-1.797.692-1.765 1.673-.308 2.129l6.714 2.063L27.215 9.76c.723-.474 1.394-.206.845.27L15.458 21.247l-.483 6.819c.703 0 1.009-.302 1.371-.66l3.28-3.113 6.8 4.938c1.24.693 2.126.335 2.457-1.134L33.35 7.369l-.003.002c.395-1.813-.668-2.54-1.886-2.106Z"/></symbol><symbol viewBox="0 0 80 80" id="icon-truck-1" xmlns="http://www.w3.org/2000/svg"><path d="M.017 10.229h46.629v11.393h10.386c4.078 0 7.48 3.402 7.48 7.48v5.96c8.685.86 15.488 8.34 15.488 17.19v9.692H68.97c-.743 4.392-4.64 7.827-9.23 7.827-4.59 0-8.487-3.435-9.23-7.827H39.86c-.743 4.392-4.64 7.827-9.23 7.827a9.371 9.371 0 0 1-7.678-3.996c-1.701 2.41-4.508 3.996-7.629 3.996-4.755 0-8.537-3.32-9.247-7.827H0V10.23h.017ZM61.11 29.102c0-2.212-1.865-4.078-4.078-4.078h-1.189v10.039h5.267v-5.96ZM59.74 66.37c3.236 0 5.96-2.724 5.96-5.96 0-3.237-2.724-5.961-5.96-5.961-3.236 0-5.96 2.56-5.96 5.96.016 3.237 2.74 5.961 5.96 5.961Zm-13.094-7.826h3.93c.892-4.227 4.706-7.48 9.164-7.48 4.458 0 8.272 3.253 9.164 7.48h7.695v-6.291A13.728 13.728 0 0 0 62.81 38.464H52.425v-13.44h-5.779v33.519Zm-16 7.826c3.236 0 5.96-2.724 5.96-5.96 0-3.402-2.559-5.961-5.96-5.961-3.236 0-5.96 2.56-5.96 5.96 0 3.237 2.724 5.961 5.96 5.961Zm-15.307 0c3.237 0 5.961-2.724 5.961-5.96 0-3.402-2.724-5.961-5.96-5.961-3.402 0-5.961 2.56-5.961 5.96 0 3.237 2.724 5.961 5.96 5.961Zm-9.18-7.826c.875-4.343 4.69-7.48 9.18-7.48 3.121 0 5.928 1.585 7.629 3.996a9.329 9.329 0 0 1 7.678-3.996c4.458 0 8.273 3.253 9.164 7.48h3.435V13.63H3.418v44.913h2.74Z"/><path d="M32.528 21.457h3.402v21.944h-3.402V21.457ZM21.63 21.457h3.402v21.944h-3.401V21.457ZM10.568 21.457h3.401v21.944h-3.401V21.457Z"/></symbol><symbol viewBox="0 0 80 80" id="icon-truck-2" xmlns="http://www.w3.org/2000/svg"><path d="m77.552 54.654-1.286-.704V47.75c0-.862-.699-1.562-1.563-1.562h-.389l-.31-3.78a4.087 4.087 0 0 0-3.813-3.762l-13.152-.913L53.2 25.29a4.09 4.09 0 0 0-3.928-2.899H39.073v-4.446c0-.863-.7-1.563-1.562-1.563h-2.34v-1.039a6.276 6.276 0 0 0-6.268-6.269 1.562 1.562 0 1 0 0 3.125 3.147 3.147 0 0 1 3.144 3.144v1.04h-2.34c-.862 0-1.562.7-1.562 1.562v9.732a1.563 1.563 0 0 0 3.125 0v-8.17h4.678v30.006H31.27v-8.087a1.563 1.563 0 0 0-3.125 0v8.087H14.273v-3.437a1.56 1.56 0 0 0-1.08-1.485L2.046 40.965A1.559 1.559 0 0 0 0 42.451v21.877c0 .862.7 1.562 1.563 1.562h8.384c.931 2.918 3.667 5.036 6.887 5.036 3.222 0 5.957-2.118 6.888-5.036h34.844c.939 2.97 3.78 5.036 6.89 5.036a7.224 7.224 0 0 0 5.955-3.139 7.16 7.16 0 0 0 1.1-2.526h2.773c2.6 0 4.716-2.116 4.716-4.716V58.79a4.713 4.713 0 0 0-2.448-4.135ZM3.125 44.602l8.023 2.61v2.301H3.125v-4.91Zm6.542 18.164H3.125v-3.17h7.762a7.217 7.217 0 0 0-1.22 3.17Zm11.247 1.377a4.11 4.11 0 0 1-4.08 3.66c-2.232 0-4.103-1.87-4.103-4.104 0-2.26 1.84-4.1 4.099-4.103 2.404.013 4.348 2.144 4.084 4.547Zm3.09-1.377a7.224 7.224 0 0 0-1.221-3.17h7.222v.71c0 .882.206 1.718.572 2.46h-6.574Zm6-7.51c-.002.406 0 .81 0 1.215H3.126v-3.833h27.49a5.982 5.982 0 0 0-.61 2.617Zm42.871-5.94.008-.001h.258v3.284h-1.996a1.643 1.643 0 0 1-1.148-2.801 1.63 1.63 0 0 1 1.16-.482h1.718Zm-27.347-23.8h3.744a.98.98 0 0 1 .942.696l3.531 11.447h-8.217V25.515Zm-6.455 0h3.33v23.997h-3.33V25.515Zm9.061 34.657c0 1.43-1.103 2.593-2.459 2.593H35.591c-1.357 0-2.46-1.164-2.46-2.593v-4.94c0-1.43 1.103-2.595 2.46-2.595h10.084c1.356 0 2.46 1.164 2.46 2.594v4.94Zm11.353-.547a7.226 7.226 0 0 0-1.2 3.14H50.69c.366-.742.57-1.578.57-2.46v-.71h8.249c-.008.01-.013.02-.02.03Zm5.544 8.154c-2.06-.212-3.678-2.009-3.678-4.08 0-2.234 1.87-4.104 4.103-4.104 2.231 0 4.102 1.87 4.102 4.103 0 2.4-2.142 4.327-4.527 4.081Zm11.844-7.234c0 .877-.714 1.59-1.59 1.59h-2.772a7.21 7.21 0 0 0-.816-2.076c-1.285-2.2-3.703-3.595-6.253-3.589H51.259v-1.239a5.773 5.773 0 0 0-1.637-4.042 5.498 5.498 0 0 0-3.947-1.677h-.147v-8.73h10.28l14.167.982a.98.98 0 0 1 .914.901l.29 3.524a5.02 5.02 0 0 0-1.665.256 4.685 4.685 0 0 0-2.387 1.885c-.538.835-.736 1.765-.736 2.748 0 .575.107 1.15.317 1.686.717 1.836 2.505 2.96 4.45 2.96h1.845l3.045 1.67c.51.28.827.814.827 1.395v1.756Z"/><path d="M36.215 55.923v3.436a1.563 1.563 0 0 0 3.125 0v-3.436a1.563 1.563 0 0 0-3.125 0ZM43.498 60.921c.862 0 1.562-.7 1.562-1.562v-3.436a1.563 1.563 0 0 0-3.125 0v3.436c0 .862.7 1.562 1.563 1.562ZM28.84 35.809c1.18.787 2.752-.355 2.373-1.716a1.578 1.578 0 0 0-1.428-1.144 1.574 1.574 0 0 0-1.533.999 1.577 1.577 0 0 0 .589 1.861ZM53.49 44.165h-2.108a1.563 1.563 0 0 0 0 3.125h2.109a1.563 1.563 0 0 0 0-3.125Z"/></symbol><symbol viewBox="0 0 36 36" id="icon-vk" xmlns="http://www.w3.org/2000/svg"><path d="M35.81 26.293a2.492 2.492 0 0 0-.123-.235c-.624-1.127-1.818-2.51-3.58-4.15l-.037-.037-.019-.018-.019-.019h-.019c-.8-.763-1.306-1.277-1.518-1.54-.388-.5-.475-1.007-.262-1.52.15-.388.712-1.208 1.686-2.46.513-.663.919-1.194 1.219-1.595 2.162-2.879 3.099-4.718 2.811-5.52l-.111-.186c-.075-.113-.269-.216-.581-.31-.313-.094-.713-.11-1.2-.047l-5.398.037c-.087-.03-.212-.028-.375.01l-.244.056-.094.047-.074.057a.833.833 0 0 0-.207.197 1.29 1.29 0 0 0-.187.328 30.676 30.676 0 0 1-2.005 4.224 40.017 40.017 0 0 1-1.275 2.018c-.387.57-.712.989-.975 1.258-.262.269-.5.484-.712.647-.212.163-.375.232-.487.207-.113-.025-.219-.05-.32-.075a1.247 1.247 0 0 1-.42-.46 2.061 2.061 0 0 1-.216-.732 8.076 8.076 0 0 1-.066-.76c-.006-.213-.003-.514.01-.902.013-.388.018-.65.018-.788 0-.476.01-.992.028-1.55l.047-1.322c.013-.326.019-.67.019-1.033 0-.363-.022-.648-.066-.854a2.922 2.922 0 0 0-.196-.601 1.012 1.012 0 0 0-.384-.45 2.164 2.164 0 0 0-.628-.254c-.662-.15-1.506-.231-2.53-.244-2.325-.025-3.818.125-4.48.45-.263.138-.5.326-.713.564-.225.275-.256.425-.094.45.75.113 1.281.382 1.594.807l.112.226c.088.162.175.45.263.863.087.413.143.87.168 1.37.063.914.063 1.696 0 2.347-.062.651-.121 1.158-.178 1.52-.056.364-.14.658-.253.883a3.722 3.722 0 0 1-.225.413.322.322 0 0 1-.093.094 1.401 1.401 0 0 1-.507.094c-.175 0-.387-.088-.637-.263a4.501 4.501 0 0 1-.778-.723c-.268-.307-.571-.735-.909-1.286a22.462 22.462 0 0 1-1.05-1.952l-.3-.545c-.187-.35-.443-.86-.768-1.53a29.536 29.536 0 0 1-.862-1.943c-.1-.263-.25-.463-.45-.6l-.093-.057a1.282 1.282 0 0 0-.3-.16 1.987 1.987 0 0 0-.431-.121L1.2 8.655c-.525 0-.881.12-1.069.357l-.075.112c-.037.063-.056.163-.056.3 0 .139.037.308.113.508a62.003 62.003 0 0 0 2.445 5.106c.881 1.64 1.647 2.96 2.296 3.96a46.778 46.778 0 0 0 1.987 2.835c.675.889 1.122 1.458 1.34 1.709.22.25.391.438.516.563l.469.45c.3.3.74.66 1.321 1.08.581.42 1.225.832 1.93 1.24.707.405 1.528.737 2.466.994a8.51 8.51 0 0 0 2.736.31h2.156c.437-.038.768-.176.993-.413l.075-.094c.05-.075.097-.191.14-.347.044-.157.066-.33.066-.517a6.194 6.194 0 0 1 .121-1.454c.094-.432.2-.757.32-.976.118-.22.253-.404.402-.554.15-.15.257-.241.32-.272.062-.032.111-.053.149-.066.3-.1.653-.003 1.06.291.405.294.786.657 1.143 1.09.356.431.784.916 1.284 1.454.5.538.937.938 1.312 1.201l.374.226c.25.15.575.288.975.413s.75.156 1.05.093l4.798-.074c.474 0 .844-.08 1.106-.235.262-.157.418-.33.468-.517.05-.187.053-.4.01-.638a2.356 2.356 0 0 0-.132-.497Z"/></symbol><symbol viewBox="0 0 36 36" id="icon-ya" xmlns="http://www.w3.org/2000/svg"><path d="M28.002 32h-4.73V7.785h-2.113c-3.868 0-5.89 2-5.89 4.984 0 3.385 1.397 4.954 4.283 6.954l2.38 1.662L15.09 32h-5.088l6.159-9.477c-3.54-2.615-5.534-5.17-5.534-9.477C10.627 7.662 14.257 4 21.129 4h6.843v28h.03Z"/></symbol><symbol viewBox="0 0 36 36" id="icon-youtube" xmlns="http://www.w3.org/2000/svg"><path d="m18.637 27.888-5.901-.108c-1.91-.037-3.826.038-5.7-.351-2.849-.581-3.05-3.431-3.262-5.821a40.77 40.77 0 0 1 .37-10.115c.311-1.87 1.531-2.986 3.418-3.107 6.37-.44 12.784-.388 19.14-.183.671.02 1.347.122 2.01.24 3.267.571 3.346 3.8 3.558 6.519a36.904 36.904 0 0 1-.282 8.235c-.323 2.259-.943 4.153-3.559 4.335-3.276.24-6.478.432-9.764.37 0-.014-.019-.014-.028-.014Zm-3.47-5.718c2.47-1.416 4.892-2.807 7.348-4.214-2.474-1.415-4.892-2.807-7.348-4.213v8.427Z"/></symbol></svg>