<svg width="563" height="225" viewBox="0 0 563 225" fill="none" xmlns="http://www.w3.org/2000/svg">
<g clip-path="url(#clip0_2134_5866)">
<path d="M4.5 151.7L121.5 7.99999H151.5V151.7H181.5V178.7H151.5V218H121.5V178.7H4.5V151.7ZM121.5 151.7V50L39.3 151.7H121.5ZM277.453 196.4C289.053 196.4 298.853 194.1 306.853 189.5C314.853 184.9 321.353 178.8 326.353 171.2C331.353 163.4 334.953 154.5 337.153 144.5C339.353 134.3 340.453 123.8 340.453 113C340.453 102.2 339.353 91.8 337.153 81.8C334.953 71.6 331.353 62.7 326.353 55.1C321.353 47.3 314.853 41.1 306.853 36.5C298.853 31.9 289.053 29.6 277.453 29.6C265.853 29.6 256.053 31.9 248.053 36.5C240.053 41.1 233.553 47.3 228.553 55.1C223.553 62.7 219.953 71.6 217.753 81.8C215.553 91.8 214.453 102.2 214.453 113C214.453 123.8 215.553 134.3 217.753 144.5C219.953 154.5 223.553 163.4 228.553 171.2C233.553 178.8 240.053 184.9 248.053 189.5C256.053 194.1 265.853 196.4 277.453 196.4ZM277.453 224C262.253 224 248.853 221.1 237.253 215.3C225.653 209.5 215.953 201.6 208.153 191.6C200.353 181.4 194.453 169.6 190.453 156.2C186.453 142.6 184.453 128.2 184.453 113C184.453 97.6 186.453 83.2 190.453 69.8C194.453 56.4 200.353 44.7 208.153 34.7C215.953 24.5 225.653 16.5 237.253 10.7C248.853 4.89999 262.253 1.99999 277.453 1.99999C292.853 1.99999 306.353 4.89999 317.953 10.7C329.553 16.5 339.253 24.5 347.053 34.7C354.853 44.7 360.653 56.4 364.453 69.8C368.453 83.2 370.453 97.6 370.453 113C370.453 128.2 368.453 142.6 364.453 156.2C360.653 169.6 354.853 181.4 347.053 191.6C339.253 201.6 329.553 209.5 317.953 215.3C306.353 221.1 292.853 224 277.453 224ZM382.43 151.7L499.43 7.99999H529.43V151.7H559.43V178.7H529.43V218H499.43V178.7H382.43V151.7ZM499.43 151.7V50L417.23 151.7H499.43Z" fill="#2E2E2E"/>
</g>
<defs>
<clipPath id="clip0_2134_5866">
<rect width="563" height="225" fill="white"/>
</clipPath>
</defs>
</svg>
