<svg width="171" height="171" viewBox="0 0 171 171" fill="none" xmlns="http://www.w3.org/2000/svg">
<g clip-path="url(#clip0_188_176)">
<path d="M85.5 171C132.72 171 171 132.72 171 85.5C171 38.2797 132.72 0 85.5 0C38.2797 0 0 38.2797 0 85.5C0 132.72 38.2797 171 85.5 171Z" fill="#183620"/>
<path fill-rule="evenodd" clip-rule="evenodd" d="M160.699 126.221C167.269 114.114 171 100.243 171 85.5C171 38.2797 132.72 0 85.5 0C38.2797 0 0 38.2797 0 85.5C0 100.243 3.73147 114.114 10.3015 126.221H160.699Z" fill="#F4DBCA"/>
<path d="M18.332 51.3901H30.6419L43.6433 100.254H44.1966L57.198 51.3901H69.5079V124.118H59.8261V76.7808H59.4342L47.2166 123.763H40.6236L28.4059 76.6035H28.014V124.118H18.332V51.3901ZM94.4679 124.118H77.7318V51.3901H94.6061C99.3554 51.3901 103.443 52.8462 106.87 55.758C110.297 58.6464 112.933 62.8012 114.777 68.2227C116.636 73.6439 117.566 80.1308 117.566 87.683C117.566 95.2587 116.636 101.769 114.777 107.214C112.933 112.66 110.282 116.838 106.824 119.75C103.381 122.662 99.2631 124.118 94.4679 124.118ZM87.7133 110.943H94.0529C97.0034 110.943 99.4858 110.138 101.499 108.528C103.527 106.895 105.049 104.373 106.063 100.964C107.093 97.5313 107.608 93.1042 107.608 87.683C107.608 82.309 107.093 77.9174 106.063 74.5082C105.049 71.099 103.535 68.5896 101.522 66.9797C99.5083 65.3698 97.0269 64.565 94.0757 64.565H87.7133V110.943ZM124.96 124.118V51.3901H143.863C147.337 51.3901 150.233 52.1832 152.554 53.7694C154.874 55.3556 156.619 57.5573 157.787 60.3747C158.954 63.1681 159.539 66.3879 159.539 70.0336C159.539 72.8745 159.17 75.3722 158.432 77.5267C157.695 79.6574 156.68 81.4092 155.389 82.7823C154.114 84.1317 152.654 85.0907 151.01 85.6587V86.3691C152.808 86.4875 154.49 87.2686 156.058 88.7129C157.641 90.157 158.924 92.181 159.907 94.7851C160.891 97.3657 161.383 100.443 161.383 104.018C161.383 107.877 160.761 111.322 159.516 114.352C158.286 117.359 156.465 119.738 154.052 121.49C151.639 123.242 148.666 124.118 145.131 124.118H124.96ZM134.942 111.547H143.079C145.861 111.547 147.89 110.73 149.165 109.096C150.441 107.439 151.079 105.237 151.079 102.491C151.079 100.479 150.764 98.7033 150.133 97.1646C149.503 95.6256 148.605 94.4184 147.436 93.5424C146.284 92.6663 144.908 92.2285 143.31 92.2285H134.942V111.547ZM134.942 81.8236H142.341C143.709 81.8236 144.924 81.4567 145.984 80.7225C147.06 79.9652 147.905 78.8998 148.52 77.5267C149.15 76.1536 149.465 74.5082 149.465 72.5905C149.465 69.9627 148.858 67.8437 147.644 66.2341C146.445 64.6242 144.739 63.819 142.526 63.819H134.942V81.8236Z" fill="#122E18"/>
<path d="M96.3134 20.0382C99.3884 12.8521 105.542 10.9563 105.542 10.9563C105.542 10.9563 107.792 17.7171 104.546 25.3038C101.257 32.6858 95.8572 34.4042 95.8572 34.4042L95.3838 35.4807L103.626 30.8622C103.626 30.8622 107.762 26.0505 114.303 26.455C121.19 27.1002 124.617 32.5296 124.617 32.5296C124.617 32.5296 120.545 37.9024 113.607 37.8654C106.959 37.8297 102.982 32.0595 102.982 32.0595L101.903 32.632L99.8485 33.7551L97.2414 35.24L93.2898 37.7458L91.9614 37.6998L94.3215 36.1554L95.1362 34.2269C95.1362 34.2269 93.1209 27.4997 96.3134 20.0382Z" fill="#122E18"/>
<path d="M96.7117 20.3338C99.4651 13.4502 105.248 11.6577 105.248 11.6577C105.248 11.6577 106.934 18.0861 104.027 25.3535C101.083 32.4249 95.631 33.914 95.631 33.914C95.631 33.914 93.8527 27.4812 96.7117 20.3338Z" fill="#122E18"/>
<path d="M89.1328 28.7535C86.0578 21.5674 79.9042 19.6716 79.9042 19.6716C79.9042 19.6716 77.6544 26.4324 80.9001 34.019C84.1894 41.4012 89.589 43.1196 89.589 43.1196L90.0626 44.1961L81.8197 39.5776C81.8197 39.5776 77.6845 34.7658 71.1429 35.1703C64.2563 35.8156 60.8291 41.2449 60.8291 41.2449C60.8291 41.2449 64.9009 46.6177 71.8395 46.5807C78.4872 46.545 82.4638 40.7749 82.4638 40.7749L83.5433 41.3474L85.5977 42.4704L88.205 43.9553L92.1567 46.4611L93.4847 46.4152L91.125 44.8708L90.3099 42.9423C90.3099 42.9423 92.3253 36.215 89.1328 28.7535Z" fill="#122E18"/>
<path d="M88.7344 29.0489C85.981 22.1653 80.1982 20.3728 80.1982 20.3728C80.1982 20.3728 78.5123 26.8012 81.4187 34.0685C84.3638 41.14 89.8154 42.6291 89.8154 42.6291C89.8154 42.6291 91.5936 36.1963 88.7344 29.0489Z" fill="#122E18"/>
<path d="M93.4641 32.6073C93.4641 32.1923 93.1277 31.856 92.7127 31.856C92.2978 31.856 91.9614 32.1923 91.9614 32.6073V58.1521C91.9614 58.567 92.2978 58.9034 92.7127 58.9034C93.1277 58.9034 93.4641 58.567 93.4641 58.1521V32.6073Z" fill="#122E18"/>
<path d="M49.6662 139.175H46.2904C46.2288 138.738 46.1029 138.35 45.9129 138.011C45.7227 137.667 45.4787 137.374 45.1809 137.133C44.8827 136.891 44.5386 136.707 44.1479 136.578C43.7627 136.45 43.344 136.386 42.8917 136.386C42.0749 136.386 41.3633 136.588 40.7571 136.994C40.1506 137.395 39.6806 137.98 39.3467 138.751C39.0128 139.516 38.8457 140.446 38.8457 141.541C38.8457 142.666 39.0128 143.611 39.3467 144.376C39.6857 145.142 40.1584 145.72 40.7646 146.11C41.3711 146.501 42.0722 146.696 42.8686 146.696C43.3158 146.696 43.7293 146.637 44.1095 146.518C44.4947 146.4 44.8364 146.228 45.1346 146.002C45.4324 145.771 45.6791 145.491 45.8745 145.162C46.0746 144.834 46.2135 144.459 46.2904 144.037L49.6662 144.053C49.5788 144.777 49.3603 145.476 49.0111 146.149C48.6667 146.817 48.2018 147.415 47.616 147.944C47.0354 148.468 46.3418 148.884 45.5352 149.193C44.7337 149.495 43.827 149.647 42.8148 149.647C41.4068 149.647 40.1482 149.329 39.0384 148.692C37.9336 148.055 37.0603 147.132 36.4181 145.925C35.781 144.718 35.4624 143.257 35.4624 141.541C35.4624 139.82 35.7861 138.356 36.4334 137.148C37.0807 135.941 37.9595 135.021 39.0693 134.389C40.1789 133.753 41.4276 133.434 42.8148 133.434C43.7293 133.434 44.5771 133.562 45.3579 133.819C46.144 134.076 46.8404 134.451 47.4465 134.945C48.0527 135.433 48.5462 136.031 48.9263 136.74C49.3116 137.449 49.5583 138.261 49.6662 139.175ZM57.3459 149.663C56.1489 149.663 55.1136 149.408 54.2402 148.9C53.3717 148.386 52.7012 147.672 52.2288 146.757C51.7561 145.838 51.5196 144.772 51.5196 143.559C51.5196 142.337 51.7561 141.268 52.2288 140.354C52.7012 139.434 53.3717 138.72 54.2402 138.212C55.1136 137.698 56.1489 137.441 57.3459 137.441C58.5432 137.441 59.5758 137.698 60.4443 138.212C61.3177 138.72 61.9908 139.434 62.4636 140.354C62.936 141.268 63.1725 142.337 63.1725 143.559C63.1725 144.772 62.936 145.838 62.4636 146.757C61.9908 147.672 61.3177 148.386 60.4443 148.9C59.5758 149.408 58.5432 149.663 57.3459 149.663ZM57.3615 147.119C57.9061 147.119 58.3608 146.966 58.7256 146.657C59.0905 146.344 59.3651 145.917 59.55 145.378C59.7402 144.839 59.8352 144.225 59.8352 143.536C59.8352 142.848 59.7402 142.234 59.55 141.695C59.3651 141.155 59.0905 140.729 58.7256 140.416C58.3608 140.102 57.9061 139.946 57.3615 139.946C56.8116 139.946 56.3493 140.102 55.9743 140.416C55.6043 140.729 55.3242 141.155 55.1343 141.695C54.9492 142.234 54.8566 142.848 54.8566 143.536C54.8566 144.225 54.9492 144.839 55.1343 145.378C55.3242 145.917 55.6043 146.344 55.9743 146.657C56.3493 146.966 56.8116 147.119 57.3615 147.119ZM65.3072 149.431V137.595H68.4363V139.684H68.5748C68.8215 138.99 69.2323 138.443 69.8082 138.042C70.3837 137.641 71.0719 137.441 71.8734 137.441C72.6854 137.441 73.3763 137.644 73.9467 138.05C74.5168 138.45 74.897 138.995 75.0872 139.684H75.2104C75.4521 139.005 75.8887 138.463 76.5207 138.058C77.1579 137.647 77.9104 137.441 78.7786 137.441C79.8833 137.441 80.7798 137.793 81.4686 138.497C82.1622 139.195 82.509 140.187 82.509 141.471V149.431H79.2333V142.118C79.2333 141.461 79.0587 140.968 78.7095 140.639C78.36 140.31 77.9233 140.146 77.3995 140.146C76.8032 140.146 76.3383 140.336 76.0044 140.716C75.6702 141.091 75.5034 141.587 75.5034 142.203V149.431H72.3206V142.049C72.3206 141.469 72.1535 141.006 71.8193 140.662C71.4905 140.318 71.0565 140.146 70.5171 140.146C70.1523 140.146 69.8235 140.238 69.5308 140.423C69.2429 140.603 69.0142 140.857 68.8447 141.186C68.6752 141.51 68.5904 141.89 68.5904 142.327V149.431H65.3072ZM85.1023 153.87V137.595H88.3393V139.583H88.4856C88.6296 139.265 88.8375 138.941 89.1098 138.612C89.3875 138.279 89.7469 138.001 90.1887 137.78C90.6356 137.554 91.1907 137.441 91.8533 137.441C92.7168 137.441 93.5131 137.667 94.2425 138.119C94.9722 138.566 95.5555 139.242 95.9922 140.146C96.4289 141.045 96.647 142.173 96.647 143.529C96.647 144.849 96.434 145.964 96.0075 146.873C95.5862 147.777 95.0107 148.463 94.281 148.93C93.5567 149.393 92.745 149.624 91.8458 149.624C91.2087 149.624 90.6669 149.519 90.2197 149.308C89.7779 149.098 89.4155 148.833 89.133 148.514C88.8505 148.191 88.6344 147.864 88.4856 147.536H88.3853V153.87H85.1023ZM88.3161 143.513C88.3161 144.217 88.4135 144.831 88.6088 145.355C88.8042 145.879 89.0867 146.287 89.4566 146.58C89.8266 146.868 90.2762 147.012 90.8054 147.012C91.3397 147.012 91.7917 146.865 92.1617 146.573C92.5316 146.275 92.8117 145.864 93.0016 145.339C93.197 144.811 93.2947 144.202 93.2947 143.513C93.2947 142.83 93.1997 142.229 93.0095 141.71C92.8195 141.191 92.5394 140.786 92.1695 140.493C91.7995 140.2 91.3448 140.053 90.8054 140.053C90.2711 140.053 89.8188 140.195 89.4491 140.477C89.0843 140.76 88.8042 141.16 88.6088 141.679C88.4135 142.198 88.3161 142.81 88.3161 143.513ZM102.212 149.655C101.456 149.655 100.783 149.524 100.192 149.262C99.6015 148.995 99.1339 148.602 98.7895 148.083C98.4505 147.559 98.281 146.906 98.281 146.126C98.281 145.468 98.4018 144.916 98.6431 144.469C98.8845 144.022 99.2135 143.662 99.6298 143.39C100.046 143.118 100.518 142.912 101.048 142.774C101.582 142.635 102.142 142.537 102.728 142.481C103.416 142.409 103.971 142.342 104.393 142.28C104.814 142.214 105.12 142.116 105.31 141.988C105.5 141.859 105.595 141.669 105.595 141.417V141.371C105.595 140.883 105.441 140.505 105.132 140.238C104.829 139.971 104.398 139.838 103.837 139.838C103.247 139.838 102.777 139.969 102.427 140.231C102.078 140.487 101.847 140.811 101.734 141.202L98.6972 140.955C98.8514 140.236 99.1543 139.614 99.6066 139.09C100.059 138.561 100.642 138.155 101.356 137.873C102.075 137.585 102.908 137.441 103.853 137.441C104.511 137.441 105.14 137.518 105.741 137.672C106.347 137.826 106.885 138.065 107.352 138.389C107.825 138.713 108.197 139.129 108.469 139.637C108.742 140.141 108.878 140.744 108.878 141.448V149.431H105.764V147.79H105.672C105.482 148.16 105.227 148.486 104.909 148.769C104.59 149.046 104.208 149.264 103.761 149.424C103.314 149.578 102.797 149.655 102.212 149.655ZM103.152 147.389C103.635 147.389 104.061 147.294 104.431 147.104C104.801 146.909 105.091 146.647 105.302 146.318C105.513 145.99 105.618 145.617 105.618 145.201V143.945C105.515 144.012 105.374 144.073 105.194 144.13C105.019 144.181 104.822 144.23 104.6 144.276C104.38 144.317 104.159 144.356 103.938 144.392C103.717 144.423 103.517 144.451 103.337 144.477C102.952 144.533 102.615 144.623 102.327 144.746C102.039 144.869 101.816 145.037 101.657 145.247C101.497 145.452 101.418 145.709 101.418 146.018C101.418 146.465 101.58 146.806 101.903 147.043C102.232 147.274 102.648 147.389 103.152 147.389ZM114.708 142.589V149.431H111.425V137.595H114.554V139.684H114.693C114.955 138.995 115.394 138.45 116.011 138.05C116.627 137.644 117.375 137.441 118.253 137.441C119.075 137.441 119.792 137.621 120.403 137.98C121.015 138.34 121.49 138.854 121.829 139.522C122.168 140.185 122.338 140.976 122.338 141.895V149.431H119.055V142.481C119.06 141.756 118.875 141.191 118.5 140.786C118.125 140.374 117.609 140.169 116.951 140.169C116.509 140.169 116.119 140.264 115.779 140.454C115.445 140.644 115.183 140.922 114.993 141.286C114.809 141.646 114.713 142.08 114.708 142.589ZM126.528 153.87C126.112 153.87 125.722 153.837 125.357 153.77C124.998 153.708 124.699 153.629 124.463 153.531L125.203 151.08C125.588 151.199 125.935 151.263 126.244 151.273C126.557 151.283 126.827 151.211 127.053 151.057C127.284 150.903 127.472 150.641 127.615 150.271L127.808 149.77L123.561 137.595H127.014L129.465 146.287H129.588L132.062 137.595H135.538L130.937 150.71C130.716 151.348 130.415 151.902 130.035 152.375C129.66 152.853 129.185 153.22 128.609 153.477C128.034 153.739 127.34 153.87 126.528 153.87Z" fill="white"/>
<path d="M70.9242 164.388C72.584 164.388 73.9295 163.043 73.9295 161.383C73.9295 159.723 72.584 158.378 70.9242 158.378C69.2645 158.378 67.9189 159.723 67.9189 161.383C67.9189 163.043 69.2645 164.388 70.9242 164.388Z" fill="#F43F3F"/>
<path d="M78.1371 165.891C79.133 165.891 79.9403 165.084 79.9403 164.088C79.9403 163.092 79.133 162.285 78.1371 162.285C77.1413 162.285 76.334 163.092 76.334 164.088C76.334 165.084 77.1413 165.891 78.1371 165.891Z" fill="#F43F3F"/>
<path d="M87.7538 164.388C89.7455 164.388 91.3601 162.774 91.3601 160.782C91.3601 158.79 89.7455 157.176 87.7538 157.176C85.7621 157.176 84.1475 158.79 84.1475 160.782C84.1475 162.774 85.7621 164.388 87.7538 164.388Z" fill="#F43F3F"/>
<path d="M93.464 167.394C94.6259 167.394 95.5677 166.452 95.5677 165.29C95.5677 164.128 94.6259 163.186 93.464 163.186C92.3022 163.186 91.3604 164.128 91.3604 165.29C91.3604 166.452 92.3022 167.394 93.464 167.394Z" fill="#F43F3F"/>
<path d="M100.676 164.388C102.17 164.388 103.381 163.178 103.381 161.684C103.381 160.19 102.17 158.979 100.676 158.979C99.1826 158.979 97.9717 160.19 97.9717 161.684C97.9717 163.178 99.1826 164.388 100.676 164.388Z" fill="#F43F3F"/>
</g>
<defs>
<clipPath id="clip0_188_176">
<rect width="171" height="171" fill="white"/>
</clipPath>
</defs>
</svg>
