<svg width="80" height="80" viewBox="0 0 80 80" fill="none" xmlns="http://www.w3.org/2000/svg">
<g clip-path="url(#clip0_2006_7468)">
<path d="M76.5853 56.5853L41.9512 70.2438L15.1219 2.43896L2.43896 8.78043M27.8048 15.6097L59.0243 2.92677L77.5609 48.7804L46.3414 61.4634L27.8048 15.6097Z" stroke="white" stroke-width="2.92683" stroke-linecap="round" stroke-linejoin="round"/>
<path d="M39.0243 17.0734L51.7072 11.7075M37.0731 38.049L67.8048 25.3661M48.2926 40.0002L60.9755 34.6343M30.7316 64.8783C34.2339 64.8783 37.0731 67.7174 37.0731 71.2197C37.0731 74.722 34.2339 77.5612 30.7316 77.5612C27.2293 77.5612 24.3901 74.722 24.3901 71.2197C24.3901 67.7174 27.2293 64.8783 30.7316 64.8783Z" stroke="white" stroke-width="2.92683" stroke-linecap="round" stroke-linejoin="round"/>
</g>
<defs>
<clipPath id="clip0_2006_7468">
<rect width="80" height="80" fill="white"/>
</clipPath>
</defs>
</svg>
