<svg width="36" height="36" viewBox="0 0 36 36" fill="none" xmlns="http://www.w3.org/2000/svg">
<path d="M18.6367 27.8882L12.7358 27.7804C10.8251 27.7429 8.90977 27.8178 7.03662 27.4288C4.18713 26.8476 3.98526 23.998 3.77403 21.6076C3.48297 18.2471 3.59565 14.8256 4.14491 11.4931C4.45499 9.62325 5.67528 8.50749 7.5624 8.38608C13.9328 7.94544 20.3456 7.99766 26.702 8.20323C27.3733 8.22208 28.0492 8.32508 28.7111 8.44232C31.9786 9.01416 32.0583 12.2435 32.2701 14.962C32.4813 17.7085 32.3921 20.4691 31.9884 23.197C31.6645 25.4555 31.0448 27.3496 28.4294 27.5324C25.1526 27.7715 21.9509 27.964 18.6648 27.9027C18.665 27.8882 18.6461 27.8882 18.6367 27.8882ZM15.1675 22.1701C17.6369 20.7545 20.0592 19.3626 22.5145 17.9565C20.0405 16.5409 17.6228 15.149 15.1675 13.7429V22.1701Z" fill="white"/>
</svg>
