<svg xmlns="http://www.w3.org/2000/svg" width="128" height="128" fill="none"><circle cx="64" cy="64" r="64" fill="url(#a)"/><path fill="#fff" d="M66.701 63.545c0 3.887-.756 7.165-2.267 9.836-1.511 2.659-3.551 4.676-6.12 6.05-2.568 1.365-5.431 2.046-8.59 2.046-3.182 0-6.057-.687-8.625-2.062-2.557-1.387-4.591-3.41-6.103-6.068-1.5-2.67-2.25-5.938-2.25-9.801 0-3.887.75-7.16 2.25-9.819 1.512-2.67 3.546-4.687 6.103-6.05 2.568-1.376 5.443-2.063 8.625-2.063 3.159 0 6.022.687 8.59 2.062 2.569 1.364 4.609 3.38 6.12 6.051 1.511 2.66 2.267 5.932 2.267 9.819Zm-9.75 0c0-2.09-.278-3.852-.835-5.284-.546-1.443-1.358-2.534-2.438-3.272-1.068-.75-2.386-1.125-3.954-1.125s-2.892.375-3.972 1.125c-1.068.738-1.88 1.83-2.437 3.272-.546 1.432-.819 3.194-.819 5.284 0 2.091.273 3.858.819 5.302.556 1.431 1.369 2.522 2.437 3.272 1.08.739 2.404 1.108 3.972 1.108s2.886-.369 3.954-1.108c1.08-.75 1.892-1.84 2.438-3.272.557-1.444.835-3.21.835-5.301ZM71.086 81V46.09H95.63v7.637H80.563v6h13.568v7.637H80.563V81h-9.477Z" style="mix-blend-mode:overlay"/><defs><linearGradient id="a" x1="0" x2="128" y1="0" y2="128" gradientUnits="userSpaceOnUse"><stop stop-color="#453A94"/><stop offset="1" stop-color="#F43B47"/></linearGradient></defs></svg>